<?xml version="1.0" encoding="UTF-8" standalone="no"?>
<!DOCTYPE svg PUBLIC "-//W3C//DTD SVG 1.1//EN"
 "http://www.w3.org/Graphics/SVG/1.1/DTD/svg11.dtd">
<!-- Generated by graphviz version 2.34.0 (20131213.1714)
 -->
<!-- Title: controllers_diagram Pages: 1 -->
<svg width="488pt" height="391pt"
 viewBox="0.00 0.00 488.00 391.00" xmlns="http://www.w3.org/2000/svg" xmlns:xlink="http://www.w3.org/1999/xlink">
<g id="graph0" class="graph" transform="scale(1 1) rotate(0) translate(4 387)">
<title>controllers_diagram</title>
<polygon fill="white" stroke="white" points="-4,4 -4,-387 484,-387 484,4 -4,4"/>
<!-- _diagram_info -->
<g id="node1" class="node"><title>_diagram_info</title>
<text text-anchor="start" x="224" y="-231.6" font-family="Times,serif" font-size="13.00">Controllers diagram</text>
<text text-anchor="start" x="224" y="-217.6" font-family="Times,serif" font-size="13.00">Date: Apr 22 2014 &#45; 12:20</text>
<text text-anchor="start" x="224" y="-203.6" font-family="Times,serif" font-size="13.00">Migration version: 20131223220833</text>
<text text-anchor="start" x="224" y="-189.6" font-family="Times,serif" font-size="13.00">Generated by RailRoady 1.1.1</text>
<text text-anchor="start" x="224" y="-175.6" font-family="Times,serif" font-size="13.00">http://railroady.prestonlee.com</text>
</g>
<!-- ApplicationController -->
<g id="node2" class="node"><title>ApplicationController</title>
<path fill="none" stroke="black" d="M348,-288.5C348,-288.5 468,-288.5 468,-288.5 474,-288.5 480,-294.5 480,-300.5 480,-300.5 480,-370.5 480,-370.5 480,-376.5 474,-382.5 468,-382.5 468,-382.5 348,-382.5 348,-382.5 342,-382.5 336,-376.5 336,-370.5 336,-370.5 336,-300.5 336,-300.5 336,-294.5 342,-288.5 348,-288.5"/>
<text text-anchor="middle" x="408" y="-367.3" font-family="Times,serif" font-size="14.00">ApplicationController</text>
<polyline fill="none" stroke="black" points="336,-359.5 480,-359.5 "/>
<polyline fill="none" stroke="black" points="336,-335.5 480,-335.5 "/>
<polyline fill="none" stroke="black" points="336,-311.5 480,-311.5 "/>
<text text-anchor="start" x="344" y="-296.3" font-family="Times,serif" font-size="14.00">_layout</text>
</g>
<!-- Spree::OrdersController -->
<g id="node3" class="node"><title>Spree::OrdersController</title>
<path fill="none" stroke="black" d="M12,-0.5C12,-0.5 145,-0.5 145,-0.5 151,-0.5 157,-6.5 157,-12.5 157,-12.5 157,-261.5 157,-261.5 157,-267.5 151,-273.5 145,-273.5 145,-273.5 12,-273.5 12,-273.5 6,-273.5 0,-267.5 0,-261.5 0,-261.5 0,-12.5 0,-12.5 0,-6.5 6,-0.5 12,-0.5"/>
<text text-anchor="middle" x="78.5" y="-258.3" font-family="Times,serif" font-size="14.00">Spree::OrdersController</text>
<polyline fill="none" stroke="black" points="0,-250.5 157,-250.5 "/>
<text text-anchor="start" x="8" y="-235.3" font-family="Times,serif" font-size="14.00">_callback_before_37</text>
<text text-anchor="start" x="8" y="-220.3" font-family="Times,serif" font-size="14.00">accurate_title</text>
<text text-anchor="start" x="8" y="-205.3" font-family="Times,serif" font-size="14.00">completed</text>
<text text-anchor="start" x="8" y="-190.3" font-family="Times,serif" font-size="14.00">edit</text>
<text text-anchor="start" x="8" y="-175.3" font-family="Times,serif" font-size="14.00">empty</text>
<text text-anchor="start" x="8" y="-160.3" font-family="Times,serif" font-size="14.00">feedbackValid</text>
<text text-anchor="start" x="8" y="-145.3" font-family="Times,serif" font-size="14.00">populate</text>
<text text-anchor="start" x="8" y="-130.3" font-family="Times,serif" font-size="14.00">romancartAddress</text>
<text text-anchor="start" x="8" y="-115.3" font-family="Times,serif" font-size="14.00">show</text>
<text text-anchor="start" x="8" y="-100.3" font-family="Times,serif" font-size="14.00">update</text>
<polyline fill="none" stroke="black" points="0,-92.5 157,-92.5 "/>
<polyline fill="none" stroke="black" points="0,-68.5 157,-68.5 "/>
<text text-anchor="start" x="8" y="-53.3" font-family="Times,serif" font-size="14.00">_layout</text>
<text text-anchor="start" x="8" y="-38.3" font-family="Times,serif" font-size="14.00">after_update_attributes</text>
<text text-anchor="start" x="8" y="-23.3" font-family="Times,serif" font-size="14.00">check_authorization</text>
<text text-anchor="start" x="8" y="-8.3" font-family="Times,serif" font-size="14.00">order_params</text>
</g>
<!-- Spree::StoreController -->
<g id="node4" class="node"><title>Spree::StoreController</title>
<ellipse fill="none" stroke="black" cx="261.191" cy="-109.705" rx="96.3833" ry="18"/>
<text text-anchor="middle" x="261.191" y="-106.005" font-family="Times,serif" font-size="14.00">Spree::StoreController</text>
</g>
<!-- Spree::StoreController&#45;&gt;Spree::OrdersController -->
<g id="edge1" class="edge"><title>Spree::StoreController&#45;&gt;Spree::OrdersController</title>
<path fill="none" stroke="black" d="M185.829,-120.964C178.162,-122.11 170.341,-123.278 162.589,-124.437"/>
<polyline fill="none" stroke="black" points="157.237,-125.236 162.182,-124.497 "/>
</g>
</g>
</svg>
