<?xml version="1.0" encoding="UTF-8" standalone="no"?>
<!DOCTYPE svg PUBLIC "-//W3C//DTD SVG 1.1//EN"
 "http://www.w3.org/Graphics/SVG/1.1/DTD/svg11.dtd">
<!-- Generated by graphviz version 2.34.0 (20131213.1714)
 -->
<!-- Title: models_diagram Pages: 1 -->
<svg width="716pt" height="248pt"
 viewBox="0.00 0.00 716.00 248.00" xmlns="http://www.w3.org/2000/svg" xmlns:xlink="http://www.w3.org/1999/xlink">
<g id="graph0" class="graph" transform="scale(1 1) rotate(0) translate(4 244)">
<title>models_diagram</title>
<polygon fill="white" stroke="white" points="-4,4 -4,-244 712,-244 712,4 -4,4"/>
<!-- _diagram_info -->
<g id="node1" class="node"><title>_diagram_info</title>
<text text-anchor="start" x="8" y="-225.6" font-family="Times,serif" font-size="13.00">Models diagram</text>
<text text-anchor="start" x="8" y="-211.6" font-family="Times,serif" font-size="13.00">Date: Apr 22 2014 &#45; 12:19</text>
<text text-anchor="start" x="8" y="-197.6" font-family="Times,serif" font-size="13.00">Migration version: 20131223220833</text>
<text text-anchor="start" x="8" y="-183.6" font-family="Times,serif" font-size="13.00">Generated by RailRoady 1.1.1</text>
<text text-anchor="start" x="8" y="-169.6" font-family="Times,serif" font-size="13.00">http://railroady.prestonlee.com</text>
</g>
<!-- Spree::LineItem -->
<g id="node2" class="node"><title>Spree::LineItem</title>
<ellipse fill="none" stroke="black" cx="310" cy="-106" rx="70.2668" ry="18"/>
<text text-anchor="middle" x="310" y="-102.3" font-family="Times,serif" font-size="14.00">Spree::LineItem</text>
</g>
<!-- Spree::Product -->
<g id="node5" class="node"><title>Spree::Product</title>
<ellipse fill="none" stroke="black" cx="227" cy="-18" rx="66.4165" ry="18"/>
<text text-anchor="middle" x="227" y="-14.3" font-family="Times,serif" font-size="14.00">Spree::Product</text>
</g>
<!-- Spree::LineItem&#45;&gt;Spree::Product -->
<g id="edge1" class="edge"><title>Spree::LineItem&#45;&gt;Spree::Product</title>
<path fill="none" stroke="#813c61" d="M288.186,-82.3975C275.989,-69.7592 260.838,-54.0612 248.665,-41.448"/>
<ellipse fill="none" stroke="#813c61" cx="291.219" cy="-85.5401" rx="4.00002" ry="4.00002"/>
<ellipse fill="#813c61" stroke="#813c61" cx="245.732" cy="-38.409" rx="4.00002" ry="4.00002"/>
<text text-anchor="middle" x="299" y="-58.3" font-family="Times,serif" font-size="14.00">product</text>
</g>
<!-- Spree::Adjustment -->
<g id="node6" class="node"><title>Spree::Adjustment</title>
<ellipse fill="none" stroke="black" cx="393" cy="-18" rx="80.389" ry="18"/>
<text text-anchor="middle" x="393" y="-14.3" font-family="Times,serif" font-size="14.00">Spree::Adjustment</text>
</g>
<!-- Spree::LineItem&#45;&gt;Spree::Adjustment -->
<g id="edge2" class="edge"><title>Spree::LineItem&#45;&gt;Spree::Adjustment</title>
<path fill="none" stroke="#f6470d" d="M331.775,-82.4379C343.448,-70.3435 357.833,-55.4382 369.726,-43.1151"/>
<ellipse fill="none" stroke="#f6470d" cx="328.781" cy="-85.5401" rx="4.00002" ry="4.00002"/>
<polygon fill="#f6470d" stroke="#f6470d" points="369.818,-43.0197 380.001,-38.9492 373.29,-39.4219 376.763,-35.8242 376.763,-35.8242 376.763,-35.8242 373.29,-39.4219 373.525,-32.6992 369.818,-43.0197 369.818,-43.0197"/>
</g>
<!-- Spree::OrderContents -->
<g id="node3" class="node"><title>Spree::OrderContents</title>
<polygon fill="none" stroke="black" points="541.25,-124 398.75,-124 398.75,-88 541.25,-88 541.25,-124"/>
<text text-anchor="middle" x="470" y="-102.3" font-family="Times,serif" font-size="14.00">Spree::OrderContents</text>
</g>
<!-- Spree::OrderPopulator -->
<g id="node4" class="node"><title>Spree::OrderPopulator</title>
<polygon fill="none" stroke="black" points="708.25,-124 559.75,-124 559.75,-88 708.25,-88 708.25,-124"/>
<text text-anchor="middle" x="634" y="-102.3" font-family="Times,serif" font-size="14.00">Spree::OrderPopulator</text>
</g>
<!-- ActiveRecord::Base -->
<g id="node7" class="node"><title>ActiveRecord::Base</title>
<ellipse fill="none" stroke="black" cx="310" cy="-201" rx="84.2388" ry="18"/>
<text text-anchor="middle" x="310" y="-197.3" font-family="Times,serif" font-size="14.00">ActiveRecord::Base</text>
</g>
<!-- ActiveRecord::Base&#45;&gt;Spree::LineItem -->
<g id="edge3" class="edge"><title>ActiveRecord::Base&#45;&gt;Spree::LineItem</title>
<path fill="none" stroke="black" d="M310,-182.942C310,-167.961 310,-146.052 310,-129.612"/>
<polyline fill="none" stroke="black" points="310,-124.264 310,-129.264 "/>
</g>
<!-- Object -->
<g id="node8" class="node"><title>Object</title>
<ellipse fill="none" stroke="black" cx="552" cy="-201" rx="35.1455" ry="18"/>
<text text-anchor="middle" x="552" y="-197.3" font-family="Times,serif" font-size="14.00">Object</text>
</g>
<!-- Object&#45;&gt;Spree::OrderContents -->
<g id="edge4" class="edge"><title>Object&#45;&gt;Spree::OrderContents</title>
<path fill="none" stroke="black" d="M538.09,-184.224C524.411,-168.71 503.451,-144.938 488.4,-127.868"/>
<polyline fill="none" stroke="black" points="485.092,-124.117 488.399,-127.867 "/>
</g>
<!-- Object&#45;&gt;Spree::OrderPopulator -->
<g id="edge5" class="edge"><title>Object&#45;&gt;Spree::OrderPopulator</title>
<path fill="none" stroke="black" d="M565.91,-184.224C579.589,-168.71 600.549,-144.938 615.6,-127.868"/>
<polyline fill="none" stroke="black" points="618.908,-124.117 615.601,-127.867 "/>
</g>
</g>
</svg>
