<?xml version="1.0" encoding="UTF-8" standalone="no"?>
<!DOCTYPE svg PUBLIC "-//W3C//DTD SVG 1.1//EN"
 "http://www.w3.org/Graphics/SVG/1.1/DTD/svg11.dtd">
<!-- Generated by graphviz version 2.34.0 (20131213.1714)
 -->
<!-- Title: models_diagram Pages: 1 -->
<svg width="724pt" height="410pt"
 viewBox="0.00 0.00 724.00 410.00" xmlns="http://www.w3.org/2000/svg" xmlns:xlink="http://www.w3.org/1999/xlink">
<g id="graph0" class="graph" transform="scale(1 1) rotate(0) translate(4 406)">
<title>models_diagram</title>
<polygon fill="white" stroke="white" points="-4,4 -4,-406 720,-406 720,4 -4,4"/>
<!-- _diagram_info -->
<g id="node1" class="node"><title>_diagram_info</title>
<text text-anchor="start" x="8" y="-387.6" font-family="Times,serif" font-size="13.00">Models diagram</text>
<text text-anchor="start" x="8" y="-373.6" font-family="Times,serif" font-size="13.00">Date: Apr 22 2014 &#45; 12:18</text>
<text text-anchor="start" x="8" y="-359.6" font-family="Times,serif" font-size="13.00">Migration version: 20131223220833</text>
<text text-anchor="start" x="8" y="-345.6" font-family="Times,serif" font-size="13.00">Generated by RailRoady 1.1.1</text>
<text text-anchor="start" x="8" y="-331.6" font-family="Times,serif" font-size="13.00">http://railroady.prestonlee.com</text>
</g>
<!-- Spree::LineItem -->
<g id="node2" class="node"><title>Spree::LineItem</title>
<path fill="none" stroke="black" d="M243.5,-89C243.5,-89 376.5,-89 376.5,-89 382.5,-89 388.5,-95 388.5,-101 388.5,-101 388.5,-273 388.5,-273 388.5,-279 382.5,-285 376.5,-285 376.5,-285 243.5,-285 243.5,-285 237.5,-285 231.5,-279 231.5,-273 231.5,-273 231.5,-101 231.5,-101 231.5,-95 237.5,-89 243.5,-89"/>
<text text-anchor="middle" x="310" y="-269.8" font-family="Times,serif" font-size="14.00">Spree::LineItem</text>
<polyline fill="none" stroke="black" points="231.5,-262 388.5,-262 "/>
<text text-anchor="start" x="239.5" y="-246.8" font-family="Times,serif" font-size="14.00">id :integer</text>
<text text-anchor="start" x="239.5" y="-231.8" font-family="Times,serif" font-size="14.00">variant_id :integer</text>
<text text-anchor="start" x="239.5" y="-216.8" font-family="Times,serif" font-size="14.00">order_id :integer</text>
<text text-anchor="start" x="239.5" y="-201.8" font-family="Times,serif" font-size="14.00">quantity :integer</text>
<text text-anchor="start" x="239.5" y="-186.8" font-family="Times,serif" font-size="14.00">price :decimal</text>
<text text-anchor="start" x="239.5" y="-171.8" font-family="Times,serif" font-size="14.00">created_at :datetime</text>
<text text-anchor="start" x="239.5" y="-156.8" font-family="Times,serif" font-size="14.00">updated_at :datetime</text>
<text text-anchor="start" x="239.5" y="-141.8" font-family="Times,serif" font-size="14.00">currency :string</text>
<text text-anchor="start" x="239.5" y="-126.8" font-family="Times,serif" font-size="14.00">cost_price :decimal</text>
<text text-anchor="start" x="239.5" y="-111.8" font-family="Times,serif" font-size="14.00">tax_category_id :integer</text>
<text text-anchor="start" x="239.5" y="-96.8" font-family="Times,serif" font-size="14.00">bsc_spec :string</text>
</g>
<!-- Spree::Product -->
<g id="node5" class="node"><title>Spree::Product</title>
<ellipse fill="none" stroke="black" cx="227" cy="-18" rx="66.4165" ry="18"/>
<text text-anchor="middle" x="227" y="-14.3" font-family="Times,serif" font-size="14.00">Spree::Product</text>
</g>
<!-- Spree::LineItem&#45;&gt;Spree::Product -->
<g id="edge1" class="edge"><title>Spree::LineItem&#45;&gt;Spree::Product</title>
<path fill="none" stroke="#775e84" d="M257.951,-81.2755C250.945,-67.1785 244.368,-53.9459 239.095,-43.3349"/>
<ellipse fill="none" stroke="#775e84" cx="259.938" cy="-85.2734" rx="4.00002" ry="4.00002"/>
<ellipse fill="#775e84" stroke="#775e84" cx="237.278" cy="-39.6788" rx="4.00002" ry="4.00002"/>
<text text-anchor="middle" x="275" y="-58.3" font-family="Times,serif" font-size="14.00">product</text>
</g>
<!-- Spree::Adjustment -->
<g id="node6" class="node"><title>Spree::Adjustment</title>
<ellipse fill="none" stroke="black" cx="393" cy="-18" rx="80.389" ry="18"/>
<text text-anchor="middle" x="393" y="-14.3" font-family="Times,serif" font-size="14.00">Spree::Adjustment</text>
</g>
<!-- Spree::LineItem&#45;&gt;Spree::Adjustment -->
<g id="edge2" class="edge"><title>Spree::LineItem&#45;&gt;Spree::Adjustment</title>
<path fill="none" stroke="#7084e8" d="M362.049,-81.2755C368.647,-67.9997 374.864,-55.4905 379.971,-45.2156"/>
<ellipse fill="none" stroke="#7084e8" cx="360.062" cy="-85.2734" rx="4.00002" ry="4.00002"/>
<polygon fill="#7084e8" stroke="#7084e8" points="380.052,-45.0518 388.533,-38.0997 382.277,-40.5743 384.503,-36.0968 384.503,-36.0968 384.503,-36.0968 382.277,-40.5743 380.473,-34.094 380.052,-45.0518 380.052,-45.0518"/>
</g>
<!-- Spree::OrderContents -->
<g id="node3" class="node"><title>Spree::OrderContents</title>
<polygon fill="none" stroke="black" points="406.5,-164 406.5,-210 549.5,-210 549.5,-164 406.5,-164"/>
<text text-anchor="middle" x="478" y="-194.8" font-family="Times,serif" font-size="14.00">Spree::OrderContents</text>
<polyline fill="none" stroke="black" points="406.5,-187 549.5,-187 "/>
<text text-anchor="middle" x="478" y="-171.8" font-family="Times,serif" font-size="14.00"> </text>
</g>
<!-- Spree::OrderPopulator -->
<g id="node4" class="node"><title>Spree::OrderPopulator</title>
<polygon fill="none" stroke="black" points="567.5,-164 567.5,-210 716.5,-210 716.5,-164 567.5,-164"/>
<text text-anchor="middle" x="642" y="-194.8" font-family="Times,serif" font-size="14.00">Spree::OrderPopulator</text>
<polyline fill="none" stroke="black" points="567.5,-187 716.5,-187 "/>
<text text-anchor="middle" x="642" y="-171.8" font-family="Times,serif" font-size="14.00"> </text>
</g>
<!-- ActiveRecord::Base -->
<g id="node7" class="node"><title>ActiveRecord::Base</title>
<ellipse fill="none" stroke="black" cx="310" cy="-363" rx="84.2388" ry="18"/>
<text text-anchor="middle" x="310" y="-359.3" font-family="Times,serif" font-size="14.00">ActiveRecord::Base</text>
</g>
<!-- ActiveRecord::Base&#45;&gt;Spree::LineItem -->
<g id="edge3" class="edge"><title>ActiveRecord::Base&#45;&gt;Spree::LineItem</title>
<path fill="none" stroke="black" d="M310,-344.999C310,-331.541 310,-311.522 310,-290.247"/>
<polyline fill="none" stroke="black" points="310,-285.109 310,-290.109 "/>
</g>
<!-- Object -->
<g id="node8" class="node"><title>Object</title>
<ellipse fill="none" stroke="black" cx="560" cy="-363" rx="35.1455" ry="18"/>
<text text-anchor="middle" x="560" y="-359.3" font-family="Times,serif" font-size="14.00">Object</text>
</g>
<!-- Object&#45;&gt;Spree::OrderContents -->
<g id="edge4" class="edge"><title>Object&#45;&gt;Spree::OrderContents</title>
<path fill="none" stroke="black" d="M552.137,-345.316C537.905,-315.115 507.759,-251.147 490.615,-214.769"/>
<polyline fill="none" stroke="black" points="488.387,-210.041 490.519,-214.564 "/>
</g>
<!-- Object&#45;&gt;Spree::OrderPopulator -->
<g id="edge5" class="edge"><title>Object&#45;&gt;Spree::OrderPopulator</title>
<path fill="none" stroke="black" d="M567.863,-345.316C582.095,-315.115 612.241,-251.147 629.385,-214.769"/>
<polyline fill="none" stroke="black" points="631.613,-210.041 629.481,-214.564 "/>
</g>
</g>
</svg>
